<mxfile host="app.diagrams.net" modified="2021-03-05T16:50:45.084Z" agent="5.0 (Macintosh; Intel Mac OS X 10_15_6) AppleWebKit/605.1.15 (KHTML, like Gecko) Version/14.0.3 Safari/605.1.15" etag="X7YEYylZ3IzHEXgacl5F" version="14.4.3" type="github">
  <diagram id="6158zzHPZz_G2DDhqVH5" name="Page-1">
    <mxGraphModel dx="2066" dy="1185" grid="1" gridSize="10" guides="1" tooltips="1" connect="1" arrows="1" fold="1" page="1" pageScale="1" pageWidth="827" pageHeight="1169" math="0" shadow="0">
      <root>
        <mxCell id="0" />
        <mxCell id="1" parent="0" />
        <mxCell id="-mptPr-jPPrCLWkfqYRy-3" value="" style="rounded=0;whiteSpace=wrap;html=1;" vertex="1" parent="1">
          <mxGeometry x="80" y="160" width="200" height="190" as="geometry" />
        </mxCell>
        <mxCell id="-mptPr-jPPrCLWkfqYRy-4" value="Výchozí obraz" style="rounded=0;whiteSpace=wrap;html=1;" vertex="1" parent="1">
          <mxGeometry x="80" y="160" width="200" height="40" as="geometry" />
        </mxCell>
        <mxCell id="-mptPr-jPPrCLWkfqYRy-5" value="Instalace potřebných balíčků" style="rounded=0;whiteSpace=wrap;html=1;" vertex="1" parent="1">
          <mxGeometry x="80" y="200" width="200" height="40" as="geometry" />
        </mxCell>
        <mxCell id="-mptPr-jPPrCLWkfqYRy-6" value="Předání SSH klíčů" style="rounded=0;whiteSpace=wrap;html=1;" vertex="1" parent="1">
          <mxGeometry x="80" y="240" width="200" height="40" as="geometry" />
        </mxCell>
        <mxCell id="-mptPr-jPPrCLWkfqYRy-7" value="Stažení zdrojových kódů" style="rounded=0;whiteSpace=wrap;html=1;" vertex="1" parent="1">
          <mxGeometry x="80" y="280" width="200" height="40" as="geometry" />
        </mxCell>
        <mxCell id="-mptPr-jPPrCLWkfqYRy-14" style="edgeStyle=orthogonalEdgeStyle;rounded=0;orthogonalLoop=1;jettySize=auto;html=1;exitX=1;exitY=0.5;exitDx=0;exitDy=0;entryX=0;entryY=0.5;entryDx=0;entryDy=0;" edge="1" parent="1" source="-mptPr-jPPrCLWkfqYRy-8" target="-mptPr-jPPrCLWkfqYRy-10">
          <mxGeometry relative="1" as="geometry" />
        </mxCell>
        <mxCell id="-mptPr-jPPrCLWkfqYRy-8" value="Vytvoření JAR" style="rounded=0;whiteSpace=wrap;html=1;" vertex="1" parent="1">
          <mxGeometry x="80" y="320" width="200" height="40" as="geometry" />
        </mxCell>
        <mxCell id="-mptPr-jPPrCLWkfqYRy-9" value="" style="rounded=0;whiteSpace=wrap;html=1;" vertex="1" parent="1">
          <mxGeometry x="400" y="160" width="200" height="120" as="geometry" />
        </mxCell>
        <mxCell id="-mptPr-jPPrCLWkfqYRy-10" value="Zkopírování JAR" style="rounded=0;whiteSpace=wrap;html=1;" vertex="1" parent="1">
          <mxGeometry x="400" y="200" width="200" height="40" as="geometry" />
        </mxCell>
        <mxCell id="-mptPr-jPPrCLWkfqYRy-12" value="Výchozí obraz" style="rounded=0;whiteSpace=wrap;html=1;" vertex="1" parent="1">
          <mxGeometry x="400" y="160" width="200" height="40" as="geometry" />
        </mxCell>
        <mxCell id="-mptPr-jPPrCLWkfqYRy-13" value="Spuštení aplikace" style="rounded=0;whiteSpace=wrap;html=1;" vertex="1" parent="1">
          <mxGeometry x="400" y="240" width="200" height="40" as="geometry" />
        </mxCell>
        <mxCell id="-mptPr-jPPrCLWkfqYRy-15" value="&lt;font style=&quot;font-size: 18px&quot;&gt;Pomocný obraz&lt;/font&gt;" style="text;html=1;strokeColor=none;fillColor=none;align=center;verticalAlign=middle;whiteSpace=wrap;rounded=0;" vertex="1" parent="1">
          <mxGeometry x="80" y="120" width="200" height="40" as="geometry" />
        </mxCell>
        <mxCell id="-mptPr-jPPrCLWkfqYRy-16" value="&lt;font style=&quot;font-size: 18px&quot;&gt;Výsledný obraz&lt;/font&gt;" style="text;html=1;strokeColor=none;fillColor=none;align=center;verticalAlign=middle;whiteSpace=wrap;rounded=0;" vertex="1" parent="1">
          <mxGeometry x="400" y="120" width="200" height="40" as="geometry" />
        </mxCell>
      </root>
    </mxGraphModel>
  </diagram>
</mxfile>
